<?xml version="1.0" encoding="UTF-8" standalone="no"?>
<!DOCTYPE svg PUBLIC "-//W3C//DTD SVG 1.1//EN" "http://www.w3.org/Graphics/SVG/1.1/DTD/svg11.dtd">
<svg version="1.1" xmlns="http://www.w3.org/2000/svg" xmlns:xlink="http://www.w3.org/1999/xlink" preserveAspectRatio="xMidYMid meet" viewBox="0 0 640 640" width="640" height="640"><defs><path d="M11.42 103L651.42 103L651.42 583L11.42 583L11.42 103Z" id="a13ji8LIjy"></path><path d="M75.47 283.58C76.64 289.87 79.27 309.47 82.49 321.32C85.7 333.16 89.65 345.3 94.77 354.66C99.89 364.02 105.89 371.48 113.2 377.48C120.51 383.47 131.04 387.72 138.65 390.64C146.25 393.57 151.22 395.17 158.83 395.03C166.43 394.88 176.67 391.96 184.28 389.76C191.88 387.57 197.73 385.23 204.46 381.87C211.19 378.5 218.65 374.26 224.64 369.58C230.64 364.9 234.88 359.63 240.44 353.78C246 347.93 252.29 340.62 257.99 334.48C263.69 328.34 268.81 322.49 274.66 316.93C280.51 311.37 286.22 306.25 293.09 301.13C299.96 296.01 307.42 289.14 315.91 286.22C324.39 283.29 336.23 283 343.99 283.58C351.74 284.17 356.27 287.24 362.41 289.73C368.56 292.21 375.43 294.84 380.84 298.5C386.25 302.16 391.08 308.01 394.88 311.66C398.68 315.32 400.73 317.66 403.66 320.44C406.58 323.22 409.65 325.12 412.43 328.34C415.21 331.55 416.97 335.94 420.33 339.74C423.69 343.55 428.81 347.35 432.61 351.15C436.42 354.95 439.34 358.32 443.14 362.56C446.95 366.8 451.92 372.65 455.43 376.6C458.94 380.55 460.84 383.62 464.2 386.25C467.57 388.88 471.23 391.23 475.61 392.4C480 393.57 485.12 392.39 490.53 393.27C495.94 394.15 502.67 396.93 508.08 397.66C513.49 398.39 517.44 397.66 523 397.66C528.55 397.66 535.87 398.1 541.43 397.66C546.98 397.22 551.52 396.05 556.34 395.03C561.17 394 565.85 393.42 570.38 391.52C574.92 389.62 581.35 384.94 583.55 383.62" id="a1DmrD5pGm"></path><path d="M72.54 281.58C72.54 281.58 72.54 281.58 72.54 281.58C72.54 287.15 72.97 292.71 73.85 298.21C74.31 301.1 74.55 302.59 74.57 302.66C76.21 307.8 72.66 298.9 77.13 311.66C81.6 324.43 78.53 315.33 79.65 319.48C80.47 322.48 83.42 329.54 88.5 340.66C92.42 348.72 95.45 354.69 97.56 358.56C102.68 367.92 109.89 374.15 117.2 380.14C124.51 386.14 131.04 387.72 138.65 390.64C146.25 393.57 151.22 395.17 158.83 395.03C166.43 394.88 176.67 391.96 184.28 389.76C191.88 387.57 197.73 385.23 204.46 381.87C211.19 378.5 217.9 373.63 223.89 368.95C229.89 364.27 234.88 359.63 240.44 353.78C246 347.93 252.29 340.62 257.99 334.48C263.69 328.34 268.81 322.49 274.66 316.93C280.51 311.37 286.22 305.13 293.09 300.01C299.96 294.89 308.42 290.14 316.91 287.22C317.97 286.85 318.94 286.54 319.82 286.28C328.25 283.83 336.98 282.59 345.77 282.59C345.77 282.59 345.78 282.59 345.8 282.59C347.84 282.65 349.93 282.85 352.07 283.21C355 283.7 357.88 284.45 360.67 285.46C360.67 285.46 360.67 285.46 360.67 285.46C362.36 286.02 364.86 287.22 364.87 287.22C364.88 287.21 367.13 288.37 370.13 289.95C371.61 290.72 373.45 291.81 375.65 293.22C375.65 293.22 375.65 293.22 375.65 293.22C375.65 293.22 387.77 302.8 387.77 302.8C389.93 304.51 391.59 305.92 392.76 307.04C396.56 310.7 401.11 315.04 404.03 317.81C406.96 320.59 410.86 325.83 413.64 329.04C416.42 332.26 418.09 335.07 421.45 338.87C424.82 342.67 428.19 347.85 431.99 351.65C435.79 355.45 438.09 359.07 441.89 363.31C445.7 367.55 449.04 372.65 452.55 376.6C456.06 380.55 460.84 383.62 464.2 386.25C467.57 388.88 471.23 391.23 475.61 392.4C480 393.57 483.83 395.39 489.24 396.27C494.66 397.15 502.67 396.93 508.08 397.66C513.49 398.39 517.44 397.66 523 397.66C528.55 397.66 535.87 398.1 541.43 397.66C546.98 397.22 551.52 396.51 556.34 395.49C561.17 394.46 565.85 393.42 570.38 391.52C574.92 389.62 581.35 384.94 583.55 383.62" id="b3tF5iF3a2"></path><path d="M196.08 327.67L262.77 396.14" id="bFZK5QxRl"></path><path d="M57.4 397.99C57.35 396.41 57.47 391.82 57.82 388.47C58.18 385.11 58.55 380.83 59.52 377.4C60.5 373.97 61.33 370.63 62.28 367.53C63.24 364.44 63.84 361.66 64.63 358.83C65.42 356 66.68 353.18 67.63 350.56C68.58 347.94 69.7 345.78 70.93 343.11C72.17 340.44 73.53 337.36 75.05 334.52C76.57 331.69 78.4 328.54 80.05 326.1C81.7 323.66 82.92 321.51 84.59 319.26C86.25 317 88.29 314.74 90.03 312.55C91.77 310.36 93.42 308.51 95.4 306.75C97.39 304.98 99.39 303.44 101.94 301.97C104.49 300.5 107.25 298.29 110.71 297.94C114.17 297.59 116.64 297.61 119.32 298.26C121.99 298.91 125.43 300.97 126.76 301.84C128.09 302.72 129.45 304.03 130.69 305.13C131.92 306.23 133.04 307.12 134.18 308.44C135.32 309.77 136.48 311.5 137.52 313.08C138.57 314.67 139.5 316.19 140.45 317.97C141.39 319.74 142.23 321.6 143.2 323.74C144.17 325.88 145.36 328.19 146.25 330.81C147.13 333.44 147.85 337.02 148.51 339.47C149.17 341.92 149.73 343.36 150.18 345.53C150.64 347.7 150.89 350.06 151.25 352.5C151.61 354.93 151.96 357.77 152.35 360.12C152.75 362.48 153.33 364.43 153.61 366.64C153.89 368.86 154.27 370.53 154.38 372.43C154.49 374.33 154.7 376.16 155.02 377.9C155.34 379.64 155.61 382.02 155.93 383.87C156.26 385.72 156.15 387.55 156.24 389.12C156.33 390.69 156.39 391.72 156.48 393.28C156.57 394.85 156.74 397.66 156.79 398.54" id="b4mOBNtAQ4"></path><path d="M287.83 326.36L286.5 397.23" id="b1iUbKBw0"></path><path d="M298.25 327.67L296.93 398.54" id="a1dPnRgv6"></path><path d="M341.57 354.34C341.57 332.22 359.3 314.3 381.17 314.3C381.17 314.3 381.17 314.3 381.17 314.3C391.68 314.3 401.75 318.51 409.18 326.02C416.6 333.53 420.78 343.72 420.78 354.34C420.78 354.34 420.78 354.34 420.78 354.34C420.78 376.45 403.05 394.38 381.17 394.38C381.17 394.38 381.17 394.38 381.17 394.38C359.3 394.38 341.57 376.45 341.57 354.34C341.57 354.34 341.57 354.34 341.57 354.34Z" id="c1boc5COHO"></path><path d="M342.82 357.78C342.82 336.55 359.83 319.34 380.8 319.34C380.8 319.34 380.8 319.34 380.8 319.34C390.87 319.34 400.53 323.39 407.65 330.6C414.77 337.81 418.78 347.59 418.78 357.78C418.78 357.78 418.78 357.78 418.78 357.78C418.78 379.02 401.77 396.23 380.8 396.23C380.8 396.23 380.8 396.23 380.8 396.23C359.83 396.23 342.82 379.02 342.82 357.78C342.82 357.78 342.82 357.78 342.82 357.78Z" id="aVyYMFTw2"></path><path d="M443.58 319.34L445.35 364.53" id="exUYsK70M"></path><path d="M445.26 319.34L445.35 364.53" id="eZeX46jRu"></path><path d="M445.26 364.97C445.4 364.17 444.76 361.08 445.35 359.15C445.93 357.21 445.89 354.28 446.62 352.23C447.36 350.18 447.72 349.25 448.38 347.46C449.04 345.67 450.27 344.35 451 342.59C451.73 340.84 453.92 338.47 454.91 336.93C455.9 335.39 456.63 334.41 457.84 333.16C459.05 331.92 460.16 330.53 461.55 329.43C462.94 328.34 464.02 327.07 465.66 326.23C467.31 325.39 468.35 324.59 469.85 323.97C471.35 323.35 474.4 322.96 475.97 322.67C477.54 322.38 479.78 322.78 481.28 323.07C482.78 323.36 484.17 324.31 485.45 325.23C486.73 326.14 488.35 326.59 489.7 327.98C491.06 329.37 491.87 331.48 493.08 333.16C493.32 333.5 493.66 334.04 494.1 334.78C495.61 337.35 496.82 340.08 497.7 342.93C497.7 342.93 497.7 342.93 497.7 342.93C498.02 343.9 498.41 344.96 498.87 346.1C498.87 346.1 498.87 346.1 498.87 346.1C499.92 348.57 500.66 351.16 501.09 353.8C501.13 354.08 501.25 354.79 501.43 355.92C501.62 359.61 501.76 361.83 501.86 362.56C502 363.66 501.6 360.33 501.86 365.85C502.11 371.37 502.48 396.53 502.73 395.69C502.99 394.84 501.45 368.04 501.86 360.8C502.26 353.56 502.38 354.13 503.08 351.68C503.54 350.04 504.02 347.73 504.53 344.73L507.63 336.45C507.63 336.45 507.63 336.45 507.63 336.45C510.35 332.8 513.7 329.65 517.51 327.16C518.28 326.65 516.81 327.62 518.07 326.79C520.26 325.36 522.68 324.31 525.23 323.68C526.06 323.48 524.46 323.87 525.23 323.68C527.96 323.02 530.82 322.99 533.56 323.61C534.45 323.82 533.72 323.65 534.81 323.9C536.94 324.38 538.96 325.22 540.81 326.39C542.24 327.3 540.25 326.04 540.81 326.39C545.4 329.3 548.7 333.87 550.03 339.14C550.03 339.14 550.03 339.14 550.03 339.14C550.33 340.06 550.52 340.64 550.59 340.87C552.03 345.25 553.06 349.76 553.67 354.34C553.67 354.34 553.67 354.34 553.67 354.34L554.17 360.8C554.23 361.49 554.26 361.93 554.27 362.1C554.27 362.1 554.66 371.99 554.66 371.99C554.66 372.19 554.66 372.32 554.67 372.4C554.67 372.41 554.67 372.55 554.67 372.82C554.67 372.82 554.67 384.25 554.67 384.25C554.67 384.34 554.67 384.55 554.67 384.9C554.55 388.65 554.55 391.11 554.67 392.31C554.85 394.1 554.67 395.79 554.67 396.23" id="d2toCHtMft"></path></defs><g><g><g><use xlink:href="#a13ji8LIjy" opacity="1" fill="#000000" fill-opacity="0"></use><g><use xlink:href="#a13ji8LIjy" opacity="1" fill-opacity="0" stroke="#000000" stroke-width="10" stroke-opacity="0"></use></g></g><g><use xlink:href="#a1DmrD5pGm" opacity="1" fill="#000000" fill-opacity="0"></use><g><use xlink:href="#a1DmrD5pGm" opacity="1" fill-opacity="0" stroke="#000000" stroke-width="10" stroke-opacity="0"></use></g></g><g><use xlink:href="#b3tF5iF3a2" opacity="1" fill="#000000" fill-opacity="0"></use><g><use xlink:href="#b3tF5iF3a2" opacity="1" fill-opacity="0" stroke="#000000" stroke-width="10" stroke-opacity="1"></use></g></g><g><use xlink:href="#bFZK5QxRl" opacity="1" fill="#000000" fill-opacity="0"></use><use xlink:href="#bFZK5QxRl" opacity="1" fill="#000000" fill-opacity="0"></use><g><use xlink:href="#bFZK5QxRl" opacity="1" fill-opacity="0" stroke="#000000" stroke-width="10" stroke-opacity="1"></use></g></g><g><use xlink:href="#b4mOBNtAQ4" opacity="1" fill="#000000" fill-opacity="0"></use><g><use xlink:href="#b4mOBNtAQ4" opacity="1" fill-opacity="0" stroke="#000000" stroke-width="10" stroke-opacity="1"></use></g></g><g><use xlink:href="#b1iUbKBw0" opacity="1" fill="#000000" fill-opacity="0"></use><g><use xlink:href="#b1iUbKBw0" opacity="1" fill-opacity="0" stroke="#000000" stroke-width="10" stroke-opacity="0"></use></g></g><g><use xlink:href="#a1dPnRgv6" opacity="1" fill="#000000" fill-opacity="0"></use><g><use xlink:href="#a1dPnRgv6" opacity="1" fill-opacity="0" stroke="#000000" stroke-width="10" stroke-opacity="1"></use></g></g><g><use xlink:href="#c1boc5COHO" opacity="1" fill="#000000" fill-opacity="0"></use><g><use xlink:href="#c1boc5COHO" opacity="1" fill-opacity="0" stroke="#000000" stroke-width="10" stroke-opacity="0"></use></g></g><g><use xlink:href="#aVyYMFTw2" opacity="1" fill="#000000" fill-opacity="0"></use><g><use xlink:href="#aVyYMFTw2" opacity="1" fill-opacity="0" stroke="#000000" stroke-width="10" stroke-opacity="1"></use></g></g><g><use xlink:href="#exUYsK70M" opacity="1" fill="#000000" fill-opacity="0"></use><g><use xlink:href="#exUYsK70M" opacity="1" fill-opacity="0" stroke="#000000" stroke-width="10" stroke-opacity="0"></use></g></g><g><use xlink:href="#eZeX46jRu" opacity="1" fill="#000000" fill-opacity="0"></use><g><use xlink:href="#eZeX46jRu" opacity="1" fill-opacity="0" stroke="#000000" stroke-width="10" stroke-opacity="1"></use></g></g><g><use xlink:href="#d2toCHtMft" opacity="1" fill="#000000" fill-opacity="0"></use><g><use xlink:href="#d2toCHtMft" opacity="1" fill-opacity="0" stroke="#000000" stroke-width="10" stroke-opacity="1"></use></g></g></g></g></svg>